<?xml version="1.0" encoding="UTF-8"?>
<svg width="45px" height="37px" viewBox="0 0 45 37" version="1.1" xmlns="http://www.w3.org/2000/svg" xmlns:xlink="http://www.w3.org/1999/xlink">
    <!-- Generator: Sketch 59 (86127) - https://sketch.com -->
    <title>PC-首页-微博icon</title>
    <desc>Created with Sketch.</desc>
    <g id="页面-1" stroke="none" stroke-width="1" fill="none" fill-rule="evenodd">
        <g id="pc-首页" transform="translate(-1580.000000, -667.000000)" fill="#FFFFFF" fill-rule="nonzero">
            <g id="编组-3" transform="translate(1539.000000, 600.000000)">
                <g id="PC-首页-微博icon" transform="translate(41.000000, 67.000000)">
                    <path d="M33.3274053,17.7361293 C31.5768014,17.3964343 32.4277637,16.4540193 32.4277637,16.4540193 C32.4277637,16.4540193 34.1403322,13.6297049 32.088612,11.5764172 C29.5459473,9.0337448 23.3670627,11.9001716 23.3670627,11.9001716 C21.0073915,12.6326308 21.6325982,11.5656188 21.9663516,9.75015578 C21.9663516,7.61088863 21.2340261,3.9902309 14.9475506,6.1287493 C8.66705258,8.2788154 3.27489913,15.8120743 3.27489913,15.8120743 C-0.474638196,20.8179723 0.0217547725,24.6869104 0.0217547725,24.6869104 C0.958356747,33.227778 10.0300851,35.57219 17.0860574,36.1271123 C24.509624,36.7097278 34.5285029,33.5672138 37.5668572,27.111925 C40.6042672,20.6457218 35.0839731,18.0863861 33.327457,17.7361364 L33.327457,17.7361364 L33.327457,17.7361364 L33.3274053,17.7361293 Z M17.6355787,33.7184222 C10.2662119,34.0627453 4.3085017,30.366311 4.3085017,25.4467996 C4.3085017,20.5219414 10.2661617,16.5722148 17.6355787,16.2325177 C25.0101194,15.8928227 30.978981,18.9321845 30.978981,23.8472587 C30.978981,28.7660516 25.0101194,33.3835492 17.6355787,33.7184222 L17.6355787,33.7184222 L17.6355787,33.7184222 Z M16.1652165,19.4765238 C8.75325339,20.3444296 9.60980139,27.2896559 9.60980139,27.2896559 C9.60980139,27.2896559 9.53382871,29.4885208 11.597061,30.6086517 C15.9339707,32.9586968 20.3994831,31.5358436 22.6562851,28.6213386 C24.9133081,25.7060598 23.588311,18.6143969 16.1652165,19.4765037 L16.1652165,19.4765037 L16.1652165,19.4765037 L16.1652165,19.4765238 Z M14.2958201,29.2241199 C12.9117105,29.3861514 11.7970026,28.588389 11.7970026,27.4298463 C11.7970026,26.2768563 12.7875733,25.0694143 14.1721451,24.9246611 C15.7617569,24.7734286 16.7961798,25.6896176 16.7961798,26.8482106 C16.7961283,28.0012006 15.6744796,29.0676432 14.2958201,29.2241199 L14.2958201,29.2241199 L14.2958201,29.2241199 L14.2958201,29.2241199 Z M18.6648026,25.5007943 C18.1960656,25.851031 17.6191279,25.8028995 17.3719335,25.3825235 C17.1134833,24.9723288 17.2104793,24.315307 17.684562,23.970213 C18.233899,23.5610464 18.8049259,23.6786489 19.0521705,24.0892039 C19.3005976,24.5089634 19.123003,25.1396064 18.6648031,25.5007958 L18.6648031,25.5007958 L18.6648031,25.5007958 L18.6648026,25.5007943 Z M36.9363697,14.7289815 C37.5339742,14.7289815 38.041619,14.2870593 38.1268971,13.7106141 C38.1378972,13.6674708 38.142986,13.630241 38.142986,13.5811845 C39.0482836,5.43961157 31.4738969,6.8408618 31.4738969,6.8408618 C30.8016082,6.8408618 30.2623476,7.38495996 30.2623476,8.06368065 C30.2623476,8.73180842 30.8016082,9.27595682 31.4738969,9.27595682 C36.9143228,8.07473588 35.7139651,13.5170038 35.7139651,13.5170038 C35.7137595,14.1902723 36.2623226,14.7289815 36.9363594,14.7289815 L36.9363594,14.7289815 L36.9363594,14.7289815 L36.9363697,14.7289815 Z M36.0535858,0.257084198 C33.434951,-0.356641796 30.7415516,0.302387168 29.9871243,0.447037649 C29.928577,0.45264265 29.8739366,0.57302203 29.820324,0.583820476 C29.7938004,0.589219799 29.7779171,0.648509644 29.7779171,0.648509644 C29.0340736,0.859083609 28.4899306,1.56428961 28.4899306,2.37845695 C28.4899306,3.34828191 29.2763855,4.15452968 30.2563674,4.15452968 C30.2563674,4.15452968 31.210239,4.03049957 31.856568,3.77755342 C32.497246,3.51946559 37.9214723,3.58765123 40.6158412,8.1134744 C42.085686,11.416425 41.261914,13.6282245 41.15906,13.9834491 C41.15906,13.9834491 40.8096274,14.8423046 40.8096274,15.6871201 C40.8096274,16.6623923 41.5958763,17.014843 42.5700515,17.014843 C43.384415,17.014843 44.068478,16.6538079 44.2679173,15.2657702 L44.2787117,15.2657702 C47.1710631,5.54912869 40.7396144,1.35075485 36.0536006,0.257091233 L36.0536006,0.257091233 L36.0536006,0.257091233 L36.0535858,0.257084198 Z" id="形状"></path>
                </g>
            </g>
        </g>
    </g>
</svg>