<?xml version="1.0" encoding="UTF-8"?>
<svg width="44px" height="36px" viewBox="0 0 44 36" version="1.1" xmlns="http://www.w3.org/2000/svg" xmlns:xlink="http://www.w3.org/1999/xlink">
    <!-- Generator: Sketch 59 (86127) - https://sketch.com -->
    <title>PC-首页-微信icon</title>
    <desc>Created with Sketch.</desc>
    <g id="页面-1" stroke="none" stroke-width="1" fill="none" fill-rule="evenodd">
        <g id="pc-首页" transform="translate(-1581.000000, -867.000000)" fill="#FFFFFF" fill-rule="nonzero">
            <g id="编组-4" transform="translate(1539.000000, 800.000000)">
                <g id="PC-首页-微信icon" transform="translate(41.000000, 67.000000)">
                    <path d="M30.249126,10.6320735 C30.7427895,10.6320735 31.231305,10.667367 31.715613,10.721619 C30.3975765,4.5846585 23.8366485,0.024966 16.34715,0.024966 C7.973829,0.024966 1.1153565,5.7311775 1.1153565,12.9781755 C1.1153565,17.162757 3.3972075,20.5962255 7.2103905,23.261256 L5.6869785,27.842976 L11.0117925,25.1732925 C12.916998,25.5497895 14.445855,25.938117 16.3471005,25.938117 C16.8250725,25.938117 17.2988865,25.9142085 17.769087,25.87743 C17.471592,24.8597595 17.2988865,23.7933315 17.2988865,22.6858185 C17.2989855,16.0316325 23.0134635,10.632123 30.2490765,10.632123 L30.249126,10.6320735 Z M21.9518865,6.193062 C23.2524495,6.193062 24.30675,7.2473625 24.30675,8.5479255 C24.30675,9.8484885 23.252499,10.902789 21.9518865,10.902789 C20.651274,10.902789 19.597023,9.8484885 19.597023,8.5479255 C19.597023,7.2473625 20.6513235,6.193062 21.9518865,6.193062 Z M11.2947345,10.950309 C9.9941715,10.950309 8.939871,9.8960085 8.939871,8.5954455 C8.939871,7.2948825 9.994221,6.240582 11.2947345,6.240582 C12.5953965,6.240582 13.649697,7.2948825 13.649697,8.595396 C13.649697,9.8959095 12.595446,10.9502595 11.2947345,10.9502595 L11.2947345,10.950309 Z M44.0436375,22.552317 C44.0436375,16.462728 37.9500885,11.498868 31.105872,11.498868 C23.8585275,11.498868 18.1507815,16.4627775 18.1507815,22.552317 C18.1507815,28.6524 23.8585275,33.605469 31.105872,33.605469 C32.6225025,33.605469 34.1526465,33.222636 35.676108,32.840793 L39.8542545,35.129178 L38.7084285,31.322727 C41.7659445,29.0290455 44.0436375,25.987518 44.0436375,22.5523665 L44.0436375,22.552317 Z M27.1258245,20.84526 C26.1996795,20.84526 25.448913,20.0943945 25.448913,19.168299 C25.448913,18.2421045 26.1996795,17.4913875 27.1258245,17.4913875 C28.0519695,17.4913875 28.802736,18.242154 28.802736,19.168299 C28.802835,20.094444 28.0519695,20.84526 27.1258245,20.84526 Z M35.4992445,20.9403495 C34.5730005,20.9403495 33.822333,20.1895335 33.822333,19.263438 C33.822333,18.337194 34.5730995,17.5865265 35.4992445,17.5865265 C36.4253895,17.5865265 37.176156,18.3372435 37.176156,19.263438 C37.1762055,20.1895335 36.4253895,20.9403495 35.4992445,20.9403495 Z" id="形状"></path>
                </g>
            </g>
        </g>
    </g>
</svg>