<?xml version="1.0" encoding="UTF-8"?>
<svg width="43px" height="38px" viewBox="0 0 43 38" version="1.1" xmlns="http://www.w3.org/2000/svg" xmlns:xlink="http://www.w3.org/1999/xlink">
    <!-- Generator: Sketch 59 (86127) - https://sketch.com -->
    <title>PC-首页-直播icon</title>
    <desc>Created with Sketch.</desc>
    <g id="页面-1" stroke="none" stroke-width="1" fill="none" fill-rule="evenodd">
        <g id="pc-首页" transform="translate(-1581.000000, -465.000000)" fill="#FFFFFF" fill-rule="nonzero">
            <g id="编组-2" transform="translate(1539.000000, 400.000000)">
                <g id="PC-首页-直播icon" transform="translate(42.000000, 65.000000)">
                    <path d="M34.6389112,19.5142844 L40.674934,16.8352259 L40.674934,16.8352259 C41.3380586,16.540601 42.1144678,16.8393302 42.4090954,17.5024569 C42.4837473,17.6704792 42.5222709,17.852299 42.5222709,18.0361576 L42.5222709,32.6991747 L42.5222709,32.6992243 C42.5230623,33.4248551 41.9354676,34.0137362 41.2098367,34.0145261 C41.0255564,34.0147273 40.8432946,33.9761607 40.6748888,33.9013316 L34.638866,31.2210259 L34.638866,35.1166751 L34.638866,35.1167213 C34.638866,36.5680062 33.4623649,37.7445073 32.01108,37.7445073 C32.01108,37.7445073 32.01108,37.7445073 32.01108,37.7445073 L3.10557294,37.7445073 L3.105573,37.7445073 C1.65428814,37.7445073 0.47774084,36.5680523 0.47774084,35.1167675 C0.47774084,35.1167367 0.47774084,35.1167059 0.47774084,35.1166751 L0.47774084,14.0944797 L0.47774084,14.0944339 C0.47774084,12.6431491 1.65424194,11.466648 3.10552681,11.466648 C3.1055576,11.466648 3.1055884,11.466648 3.10561919,11.466648 L32.0112186,11.466648 L32.0112187,11.466648 C33.4625036,11.466648 34.6389862,12.6431953 34.6389585,14.0944801 C34.6389585,14.0944801 34.6389585,14.0944801 34.6389585,14.0944801 L34.6389585,19.5142627 L34.6389112,19.5142844 Z M20.8430926,10.1528233 L20.8430928,10.1528233 C18.3033478,10.1608491 16.2379521,8.10850428 16.2298819,5.56875924 C16.2218561,3.02901419 18.274201,0.963618487 20.813946,0.955548839 C20.8236623,0.955548839 20.8333787,0.955548839 20.8430951,0.955548839 L20.8430951,0.955548839 C23.3828263,0.966955357 25.4324568,3.03504218 25.4211224,5.57476413 C25.4097638,8.09843454 23.3667055,10.1414643 20.843035,10.1528233 L20.8430926,10.1528233 Z M11.6458648,10.1527997 L11.6458646,10.1527997 C9.83176434,10.1527997 8.36114373,8.68217912 8.36114373,6.86807882 C8.36114373,5.05397851 9.83176434,3.5833579 11.6458646,3.5833579 L11.6458645,3.5833579 C13.4599648,3.5833579 14.9305854,5.05397851 14.9305854,6.86807882 C14.9305854,8.68217912 13.4599648,10.1527997 11.6458645,10.1527997 L11.6458648,10.1527997 Z M12.0037473,31.4859145 L12.0037473,31.4854236 C12.0037473,32.4353751 12.7525278,33.2054615 13.6761159,33.2054615 C13.9669069,33.2054615 14.2526723,33.1274714 14.5052063,32.979188 L26.2115028,26.0989156 L26.2115028,26.0989156 C27.0131958,25.6272397 27.2913387,24.5764184 26.8327547,23.7518415 C26.6847426,23.4857025 26.4702565,23.2650939 26.2115028,23.1128563 L14.5056767,16.232342 L14.5056768,16.2323421 C13.7037545,15.7610738 12.6822352,16.0476763 12.2240452,16.8724883 C12.0797505,17.132241 12.0037473,17.4262106 12.0037473,17.7253717 L12.0037473,31.4859165 L12.0037473,31.4859145 Z M15.2287473,20.3054615 L21.6787473,24.6054615 L15.2287473,28.9054615 L15.2287473,20.3054615 L15.2287473,20.3054615 Z" id="形状"></path>
                </g>
            </g>
        </g>
    </g>
</svg>